# AST/ASF file generated using VICON BodyLanguage
# -----------------------------------------------
:version 1.10
:name VICON
:units
  mass 1.0
  length 0.45
  angle deg
:documentation
   .ast/.asf automatically generated from VICON data using
   VICON BodyBuilder and BodyLanguage model FoxedUp or BRILLIANT.MOD
:root
   order TX TY TZ RX RY RZ
   axis XYZ
   position 0 0 0  
   orientation 0 0 0 
:bonedata
  begin
     id 1 
     name lhipjoint
     direction 0.528046 -0.759594 0.379717 
     length 2.39752 
     axis 0 0 0  XYZ
  end
  begin
     id 2 
     name lfemur
     direction 0.34202 -0.939693 0  
     length 7.31175  
     axis 0 0 20  XYZ
    dof rx ry rz
    limits (-160.0 20.0)
           (-70.0 70.0)
           (-60.0 70.0)
  end
  begin
     id 3 
     name ltibia
     direction 0.34202 -0.939693 0   
     length 7.52482   
     axis 0 0 20   XYZ
    dof rx
    limits (-10.0 170.0)
  end
  begin
     id 4 
     name lfoot
     direction 0.0675379 -0.185559 0.980309   
     length 2.00961   
     axis -90 7.62852e-016 20   XYZ
    dof rx rz
    limits (-45.0 90.0)
           (-70.0 20.0)
  end
  begin
     id 5 
     name ltoes
     direction 1.5352e-011 -4.22286e-011 1   
     length 1.01383   
     axis -90 7.62852e-016 20   XYZ
    dof rx
    limits (-90.0 20.0)
  end
  begin
     id 6 
     name rhipjoint
     direction -0.510274 -0.769251 0.384544   
     length 2.36742  
     axis 0 0 0  XYZ 
  end
  begin
     id 7 
     name rfemur
     direction -0.34202 -0.939693 0   
     length 7.45325   
     axis 0 0 -20   XYZ
    dof rx ry rz
    limits (-160.0 20.0)
           (-70.0 70.0)
           (-70.0 60.0)
  end
  begin
     id 8 
     name rtibia
     direction -0.34202 -0.939693 0   
     length 7.49587   
     axis 0 0 -20   XYZ
    dof rx
    limits (-10.0 170.0)
 end
 begin
     id 9 
     name rfoot
     direction -0.106475 -0.292536 0.950308   
     length 2.20898  
     axis -90 -7.62852e-016 -20   XYZ
    dof rx rz
    limits (-45.0 90.0)
           (-20.0 70.0)
  end
  begin
     id 10 
     name rtoes
     direction -1.53597e-011 -4.22023e-011 1   
     length 1.10065   
     axis -90 -7.62852e-016 -20   XYZ
    dof rx
    limits (-90.0 20.0)
  end
  begin
     id 11 
     name lowerback
     direction 0.0260024 0.998026 -0.0571652   
     length 2.11214   
     axis 0 0 0   XYZ
    dof rx ry rz
    limits (-20.0 45.0)
           (-30.0 30.0)
           (-30.0 30.0)
  end
  begin
     id 12 
     name upperback
     direction 0.0216202 0.999542 -0.0211766   
     length 2.11689   
     axis 0 0 0   XYZ
    dof rx ry rz
    limits (-20.0 45.0)
           (-30.0 30.0)
           (-30.0 30.0)
  end
  begin
     id 13 
     name thorax
     direction 0.00883312 0.999944 0.00589057   
     length 2.11821   
     axis 0 0 0   XYZ
    dof rx ry rz
    limits (-20.0 45.0)
           (-30.0 30.0)
           (-30.0 30.0)
  end
  begin
     id 14 
     name lowerneck
     direction -0.059386 0.994433 0.0870401   
     length 1.81176   
     axis 0 0 0   XYZ
    dof rx ry rz
    limits (-20.0 45.0)
           (-30.0 30.0)
           (-30.0 30.0)
  end
  begin
     id 15 
     name upperneck
     direction 0.0506457 0.97328 -0.223967   
     length 1.82382   
     axis 0 0 0   XYZ
    dof rx ry rz
    limits (-20.0 45.0)
           (-30.0 30.0)
           (-30.0 30.0)
  end
  begin
     id 16
     name head
     direction 0.0205902 0.996147 -0.0852487  
     length 1.84805  
     axis 0 0 0   XYZ
    dof rx ry rz
    limits (-20.0 45.0)
           (-30.0 30.0)
           (-30.0 30.0)
  end
  begin
     id 17 
     name lclavicle
     direction 0.949493 0.303881 -0.0782325  
     length 3.60584  
     axis 0 0 0   XYZ
    dof ry rz
    limits (-20.0 10.0)
           (0.0 20.0)
  end
  begin
     id 18 
     name lhumerus
     direction 1 -4.48965e-011 1.48782e-027   
     length 4.95681   
     axis 180 -30 -90   XYZ
    dof rx ry rz
    limits (-60.0 90.0)
           (-90.0 90.0)
           (-90.0 90.0)
  end
  begin
     id 19
     name lradius
     direction 1 -4.48952e-011 2.06528e-027   
     length 3.40915   
     axis 180 -30 -90   XYZ
    dof rx
    limits (-10.0 170.0)
  end
  begin
     id 20
     name lwrist
     direction 1 -4.48964e-011 1.28021e-027   
     length 1.70457   
     axis -1.61767e-015 90 90   XYZ
    dof ry
    limits (-180.0 0.0)
 end
  begin
     id 21 
     name lhand
     direction 1 -4.49094e-011 2.54887e-027   
     length 0.616403   
     axis -1.63363e-015 90 90   XYZ
    dof rx rz
    limits (-90.0 90.0)
           (-45.0 45.0)
  end
  begin
     id 22 
     name lfingers
     direction 1 -4.49002e-011 5.11407e-027   
     length 0.49696   
     axis -3.26723e-015 90 90   XYZ
    dof rx
    limits (0.0 90.0)
  end
  begin
     id 23
     name lthumb
     direction 0.707107 -6.34998e-011 0.707107   
     length 0.713539   
     axis -90 45 -2.25915e-014   XYZ
    dof rx rz
    limits (-45.0 45.0)
           (-45.0 45.0)
  end
  begin
     id 24 
     name rclavicle
     direction -0.937751 0.334612 -0.0930482   
     length 3.46287  
     axis 0 0 0   XYZ 
    dof ry rz
    limits (-10.0 20.0)
           (-20.0 0.0)
  end
  begin
     id 25 
     name rhumerus
     direction -1 -4.48962e-011 3.59972e-027  
     length 5.352   
     axis 180 30 90   XYZ
    dof rx ry rz
    limits (-90.0 60.0)
           (-90.0 90.0)
           (-90.0 90.0)
  end
  begin
     id 26 
     name rradius
     direction -1 -4.48987e-011 -3.76925e-027   
     length 3.43721   
     axis 180 30 90   XYZ
    dof rx
    limits (-10.0 170.0)
  end
  begin
     id 27 
     name rwrist
     direction -1 -4.48943e-011 1.28112e-027   
     length 1.7186   
     axis -1.61767e-015 -90 -90   XYZ
    dof ry
    limits (-180.0 0.0)
  end
  begin
     id 28
     name rhand
     direction -1 -4.49027e-011 2.55483e-027   
     length 0.72009   
     axis -1.63363e-015 -90 -90   XYZ
    dof rx rz
    limits (-90.0 90.0)
           (-45.0 45.0)
  end
  begin
     id 29
     name rfingers
     direction -1 -4.48827e-011 5.14506e-027   
     length 0.580555   
     axis -3.26723e-015 -90 -90   XYZ
    dof rx
    limits (0.0 90.0)
  end
  begin
     id 30
     name rthumb
     direction -0.707107 -6.34936e-011 0.707107   
     length 0.833564   
     axis -90 -45 2.25915e-014   XYZ
    dof rx rz
    limits (-45.0 45.0)
           (-45.0 45.0)
  end
:hierarchy
  begin
    root lhipjoint rhipjoint lowerback
    lhipjoint lfemur
    lfemur ltibia
    ltibia lfoot
    lfoot ltoes
    rhipjoint rfemur
    rfemur rtibia
    rtibia rfoot
    rfoot rtoes
    lowerback upperback
    upperback thorax
    thorax lowerneck lclavicle rclavicle
    lowerneck upperneck
    upperneck head
    lclavicle lhumerus
    lhumerus lradius
    lradius lwrist
    lwrist lhand lthumb
    lhand lfingers
    rclavicle rhumerus
    rhumerus rradius
    rradius rwrist
    rwrist rhand rthumb
    rhand rfingers
  end

#!OML:ASF H:\Terrain\Patient Classification 1\Terrain2\Thursday\justin.ASF
:FULLY-SPECIFIED
:DEGREES
401
root 29.8288 17.596 -22.7548 362.123 22.8319 358.991
lowerback 4.32939 1.60466 -0.136361
upperback -1.8892 2.1442 0.21137
thorax -4.3907 1.0721 0.121511
lowerneck 6.05984 -12.2356 -12.3026
upperneck 7.91186 -17.9945 15.2428
head 3.87295 -9.04573 6.00271
rclavicle -5.87618e-015 1.59028e-015
rhumerus -38.6996 -26.206 -64.6699
rradius 25.2367
rwrist -12.398
rhand -23.8195 12.6822
rfingers 7.12502
rthumb 2.65166 -17.281
lclavicle -5.87618e-015 1.59028e-015
lhumerus -40.5103 2.52441 70.5296
lradius 31.6991
lwrist 6.50991
lhand -12.0091 19.3722
lfingers 7.12502
lthumb 14.0483 48.8774
rfemur -20.0248 8.93569 15.5218
rtibia 33.8722
rfoot -21.2003 5.39836
rtoes 1.59589
lfemur -10.3682 -2.38762 -16.9016
ltibia 22.9506
lfoot -12.325 -16.334
ltoes 8.10615
402
root 29.8597 17.5976 -22.7832 362.276 21.7486 359.082
lowerback 4.38022 1.47918 -0.28925
upperback -1.95804 1.97017 0.275453
thorax -4.49774 0.991126 0.284646
lowerneck 5.92729 -12.1283 -12.3139
upperneck 8.0913 -17.8437 15.0479
head 3.90989 -8.96731 5.94502
rclavicle -4.2644e-014 -2.21148e-015
rhumerus -38.6452 -25.8691 -64.545
rradius 24.7082
rwrist -11.4622
rhand -24.3141 12.8078
rfingers 7.12502
rthumb 2.17405 -17.1609
lclavicle -4.2644e-014 -2.21148e-015
lhumerus -40.7148 3.29835 69.9567
lradius 32.0615
lwrist 6.25128
lhand -11.57 18.7098
lfingers 7.12502
lthumb 14.4714 48.1852
rfemur -20.459 8.36347 15.5052
rtibia 34.4167
rfoot -20.9195 3.67762
rtoes 5.20956
lfemur -10.3533 -1.93366 -17.1295
ltibia 22.9469
lfoot -12.3995 -15.8202
ltoes 8.83065
403
root 29.8889 17.601 -22.8125 362.38 20.7398 359.23
lowerback 4.64071 1.28556 -0.355069
upperback -2.11198 1.70562 0.236356
thorax -4.80429 0.861344 0.294425
lowerneck 5.86124 -11.843 -12.687
upperneck 8.43162 -17.5352 15.3094
head 4.03354 -8.81333 6.09519
rclavicle 2.79725e-014 4.69629e-015
rhumerus -38.7302 -25.4262 -64.5746
rradius 24.391
rwrist -10.8749
rhand -24.2248 12.1995
rfingers 7.12502
rthumb 2.26023 -17.7682
lclavicle 2.79725e-014 4.69629e-015
lhumerus -41.0434 4.07894 69.1427
lradius 32.2321
lwrist 5.69419
lhand -16.4991 21.4004
lfingers 7.12502
lthumb 9.7186 51.1562
rfemur -20.7619 7.68956 15.5681
rtibia 35.0465
rfoot -21.0033 1.22511
rtoes 4.23274
lfemur -10.2747 -1.2713 -17.4117
ltibia 22.8625
lfoot -12.3639 -15.5176
ltoes 9.26937
404
root 29.9188 17.6017 -22.8328 362.463 19.7365 359.593
lowerback 4.85051 1.131 -0.693589
upperback -2.16651 1.47408 0.210878
thorax -4.98646 0.75711 0.473031
lowerneck 5.88041 -11.5301 -13.1803
upperneck 8.51886 -17.1941 15.7856
head 4.08936 -8.65184 6.34535
rclavicle -6.71743e-015 -7.77745e-015
rhumerus -38.7423 -25.0007 -64.5432
rradius 24.0701
rwrist -10.1363
rhand -24.2082 12.0785
rfingers 7.12502
rthumb 2.27626 -17.8891
lclavicle -6.71743e-015 -7.77745e-015
lhumerus -41.3023 4.24673 68.8136
lradius 32.54
lwrist 6.2164
lhand -19.6964 24.3386
lfingers 7.12502
lthumb 6.63294 54.2147
rfemur -20.9045 6.65375 15.4684
rtibia 35.7547
rfoot -21.0525 -0.741368
rtoes 3.85485
lfemur -10.0463 -0.515145 -17.9162
ltibia 22.7096
lfoot -12.3427 -15.251
ltoes 9.13692
405
root 29.9512 17.5978 -22.8512 362.48 18.7178 359.845
lowerback 4.85185 1.03181 -1.05636
upperback -2.06792 1.32185 0.326398
thorax -4.8936 0.694555 0.810974
lowerneck 5.82825 -11.2743 -13.5414
upperneck 8.32998 -16.8693 16.1092
head 4.04967 -8.49936 6.52848
rclavicle -3.37462e-014 -2.23633e-015
rhumerus -38.5604 -24.5593 -64.4734
rradius 23.8588
rwrist -9.73641
rhand -24.5827 12.0878
rfingers 7.12502
rthumb 1.91461 -17.8834
lclavicle -3.37462e-014 -2.23633e-015
lhumerus -41.5397 3.90183 69.0481
lradius 33.2105
lwrist 7.52653
lhand -20.7351 25.6696
lfingers 7.12502
lthumb 5.63007 55.5748
rfemur -21.0859 5.59891 15.4413
rtibia 36.4873
rfoot -20.8959 -1.81926
rtoes 6.17829
lfemur -9.78085 0.227176 -18.3059
ltibia 22.5921
lfoot -12.4679 -15.0821
ltoes 9.64474
406
root 29.9874 17.5955 -22.8803 362.563 17.6329 359.899
lowerback 4.70933 0.943788 -1.21923
upperback -1.98153 1.20352 0.517416
thorax -4.7277 0.642932 1.1139
lowerneck 5.21081 -11.0755 -13.8863
upperneck 8.42951 -16.5708 16.1448
head 4.16698 -8.33342 6.57421
rclavicle -5.05969e-015 4.77083e-015
rhumerus -38.2635 -24.0697 -64.4449
rradius 23.7398
rwrist -9.91208
rhand -24.6746 11.8206
rfingers 7.12502
rthumb 1.82583 -18.1514
lclavicle -5.05969e-015 4.77083e-015
lhumerus -41.6021 4.59588 68.8558
lradius 33.5073
lwrist 7.69723
lhand -20.809 25.4043
lfingers 7.12502
lthumb 5.55872 55.3114
rfemur -21.4929 4.5339 15.6015
rtibia 37.2139
rfoot -20.3477 -2.65125
rtoes 8.29476
lfemur -9.76382 0.746241 -18.5446
ltibia 22.5458
lfoot -12.6264 -14.5774
ltoes 9.71103
